<svg width="32" height="32" viewBox="0 0 32 32" fill="none" xmlns="http://www.w3.org/2000/svg">
<path d="M18.9574 15.999L12.909 9.95758C12.8026 9.8511 12.7182 9.72468 12.6606 9.58556C12.603 9.44643 12.5734 9.29731 12.5734 9.14672C12.5734 8.99613 12.603 8.84702 12.6606 8.70789C12.7182 8.56876 12.8026 8.44235 12.909 8.33587C13.0154 8.22938 13.1417 8.14492 13.2808 8.08729C13.4198 8.02966 13.5688 8 13.7193 8C13.8697 8 14.0187 8.02966 14.1578 8.08729C14.2968 8.14492 14.4231 8.22938 14.5295 8.33587L21.3767 15.1882C21.4837 15.2943 21.5686 15.4206 21.6265 15.5598C21.6845 15.699 21.7143 15.8483 21.7143 15.999C21.7143 16.1498 21.6845 16.2991 21.6265 16.4382C21.5686 16.5774 21.4837 16.7037 21.3767 16.8099L14.5295 23.6622C14.4234 23.7692 14.2972 23.8542 14.1581 23.9122C14.0191 23.9701 13.8699 24 13.7193 24C13.5686 24 13.4194 23.9701 13.2804 23.9122C13.1413 23.8542 13.0151 23.7692 12.909 23.6622C12.802 23.556 12.7171 23.4297 12.6592 23.2905C12.6013 23.1514 12.5714 23.0021 12.5714 22.8513C12.5714 22.7006 12.6013 22.5513 12.6592 22.4121C12.7171 22.273 12.802 22.1466 12.909 22.0405L18.9574 15.999Z" fill="#8A94A6"/>
</svg>
